<?xml version="1.0" encoding="utf-8"?>
<!-- Generator: Adobe Illustrator 21.1.0, SVG Export Plug-In . SVG Version: 6.00 Build 0)  -->
<svg version="1.1" id="Layer_1" xmlns="http://www.w3.org/2000/svg" xmlns:xlink="http://www.w3.org/1999/xlink" x="0px" y="0px"
	 viewBox="0 0 1080 1920" style="enable-background:new 0 0 1080 1920;" xml:space="preserve">
<style type="text/css">
	.st0{fill:#3BA684;}
	.st1{opacity:0.1;fill:#F3896E;enable-background:new    ;}
	.st2{fill:#FFFFFF;}
	.st3{font-family:'Raleway-Regular';}
	.st4{font-size:72px;}
	.st5{fill:#3BA684;stroke:#000000;stroke-miterlimit:10;}
	.st6{font-size:54px;}
	.st7{fill:none;stroke:#000000;stroke-miterlimit:10;}
	.st8{fill:#808080;}
	.st9{fill:#FFFFFF;stroke:#B3B3B3;stroke-width:4;stroke-miterlimit:10;}
	.st10{font-family:'Raleway-Bold';}
	.st11{fill:#A6432A;}
	.st12{fill:#AFB3B9;}
	.st13{font-family:'Raleway-Thin';}
</style>
<path class="st0" d="M1001,1820H97c-6.6,0-12-5.4-12-12v-169c0-6.6,5.4-12,12-12h904c6.6,0,12,5.4,12,12v169
	C1013,1814.6,1007.6,1820,1001,1820z"/>
<rect y="-0.5" class="st1" width="1080" height="1921"/>
<text transform="matrix(1 0 0 1 35.0508 74.5488)" class="st2 st3 st4">locus.</text>
<rect x="0.5" y="-0.5" class="st5" width="1080" height="125"/>
<text transform="matrix(1 0 0 1 24.2065 87.2178)" class="st2 st3 st4">locus.</text>
<text transform="matrix(1 0 0 1 110.2529 392.1431)" class="st2 st3 st6">add photo</text>
<line class="st7" x1="85.3" y1="961.8" x2="1013" y2="961.8"/>
<line class="st7" x1="85.2" y1="784.7" x2="1012.8" y2="784.7"/>
<text transform="matrix(1 0 0 1 85.3333 768.1672)" class="st8 st3 st6">Company Title</text>
<text transform="matrix(1 0 0 1 85 854.9191)" class="st8 st3 st6">Locus Point Name</text>
<text transform="matrix(1 0 0 1 82.3333 941.75)" class="st8 st3 st6">Expiration Date</text>
<path class="st9" d="M1001,1332H97c-6.6,0-12-2.9-12-6.4V994c0-3.5,5.4-6.4,12-6.4h904c6.6,0,12,2.9,12,6.4v331.6
	C1013,1329.1,1007.6,1332,1001,1332z"/>
<text transform="matrix(1 0 0 1 110.2528 1056.6666)" class="st8 st3 st6">More info...</text>
<text transform="matrix(1 0 0 1 236.8052 1747.085)" class="st2 st10 st4">Create locus point</text>
<path class="st11" d="M1001,1554H97c-6.6,0-12-5.4-12-12v-153c0-6.6,5.4-12,12-12h904c6.6,0,12,5.4,12,12v153
	C1013,1548.6,1007.6,1554,1001,1554z"/>
<text transform="matrix(1 0 0 1 325.271 1493.4326)" class="st2 st10 st4">Add QR Code</text>
<g>
	<circle class="st12" cx="1017" cy="64" r="46"/>
	<g>
		<path class="st2" d="M997.2,50.9l6.7-6.7l13.1,13.1l13.1-13.1l6.7,6.7L1023.7,64l13.1,13.1l-6.7,6.7L1017,70.7l-13.1,13.1
			l-6.7-6.7l13.1-13.1L997.2,50.9z"/>
	</g>
</g>
<path class="st5" d="M1000.8,692.5H77.7c-6.6,0-12-5.4-12-12V236.7c0-6.6,5.4-12,12-12h923.2c6.6,0,12,5.4,12,12v443.8
	C1012.8,687.1,1007.4,692.5,1000.8,692.5z"/>
<line class="st7" x1="85.2" y1="868.5" x2="1012.8" y2="868.5"/>
<text transform="matrix(1 0 0 1 372.6445 475.2267)" class="st2 st13 st4">add photo</text>
</svg>
