<?xml version="1.0" encoding="utf-8"?>
<!-- Generator: Adobe Illustrator 21.1.0, SVG Export Plug-In . SVG Version: 6.00 Build 0)  -->
<svg version="1.1" id="Layer_1" xmlns="http://www.w3.org/2000/svg" xmlns:xlink="http://www.w3.org/1999/xlink" x="0px" y="0px"
	 viewBox="0 0 180 262" style="enable-background:new 0 0 180 262;" xml:space="preserve">
<style type="text/css">
	.st0{fill:url(#SVGID_1_);}
	.st1{fill:#FFFFFF;}
</style>
<g>
	<linearGradient id="SVGID_1_" gradientUnits="userSpaceOnUse" x1="90.358" y1="45.5089" x2="90.358" y2="215.1755">
		<stop  offset="0" style="stop-color:#6EF3C8"/>
		<stop  offset="0.3364" style="stop-color:#70F1C7"/>
		<stop  offset="0.5" style="stop-color:#78EBC1"/>
		<stop  offset="0.6262" style="stop-color:#85E1B9"/>
		<stop  offset="0.7335" style="stop-color:#97D2AC"/>
		<stop  offset="0.8286" style="stop-color:#B0BF9C"/>
		<stop  offset="0.9143" style="stop-color:#CDA788"/>
		<stop  offset="0.9927" style="stop-color:#EF8C70"/>
		<stop  offset="1" style="stop-color:#F3896E"/>
	</linearGradient>
	<path class="st0" d="M90.4,5C43.1,5,4.7,43.3,4.7,90.6c0,47.3,82.4,166.7,82.4,166.7c1.6,2.3,4.1,2.3,5.7,0
		c0,0,83.2-122,83.2-166.7C176,43.3,137.7,5,90.4,5z"/>
</g>
<g>
	<g>
		<path class="st1" d="M67,42.2c0-2.8,2.2-5,5-5h17.3c2.8,0,5,2.2,5,5v82.5c0,2.8,0.6,7.2,1.4,9.8c0,0,1.5,5.4,7.3,5.4
			c1.4,0,2.9-0.2,4.5-0.6c1.6-0.4,1.6-0.4,1.6-0.4c1.6-0.8,3.3,0.8,3.7,3.5l1.9,10.6c0.5,2.7-1.2,5.7-3.8,6.7c0,0-2.7,1-7.1,1.9
			c-4.4,0.9-8.6,1.4-12.4,1.4c-7.8,0-13.9-2-18.1-6.1c-4.2-4.1-5.5-12.8-5.5-12.8c-0.4-2.7-0.8-7.2-0.8-9.9V42.2z"/>
	</g>
</g>
</svg>
